HIERARCHY
ROOT Hips
{
  OFFSET -31.5692 30.0904 122.763
  CHANNELS 6 Xposition Yposition Zposition Zrotation Xrotation Yrotation
  JOINT LeftUpLeg
  {
    OFFSET 8.64259 1.95398 -2.38835
    CHANNELS 3 Zrotation Xrotation Yrotation
    JOINT LeftLeg
    {
      OFFSET 43.7702 0 0
      CHANNELS 3 Zrotation Xrotation Yrotation
      JOINT LeftFoot
      {
        OFFSET 40.6238 0 0
        CHANNELS 3 Zrotation Xrotation Yrotation
        JOINT LeftToeBase
        {
          OFFSET 12.7242 0 0
          CHANNELS 3 Zrotation Xrotation Yrotation
          End Site
          {
            OFFSET 0 0 0
          }
        }
      }
    }
  }
  JOINT RightUpLeg
  {
    OFFSET -8.2249 1.95398 -2.59336
    CHANNELS 3 Zrotation Xrotation Yrotation
    JOINT RightLeg
    {
      OFFSET 43.5653 0 0
      CHANNELS 3 Zrotation Xrotation Yrotation
      JOINT RightFoot
      {
        OFFSET 40.6238 0 0
        CHANNELS 3 Zrotation Xrotation Yrotation
        JOINT RightToeBase
        {
          OFFSET 12.7242 0 0
          CHANNELS 3 Zrotation Xrotation Yrotation
          End Site
          {
            OFFSET 0 0 0
          }
        }
      }
    }
  }
  JOINT Spine
  {
    OFFSET 0.165834 0.87714 6.61349
    CHANNELS 3 Zrotation Xrotation Yrotation
    JOINT Spine1
    {
      OFFSET 7.38963 1.71661e-005 0
      CHANNELS 3 Zrotation Xrotation Yrotation
      JOINT Spine2
      {
        OFFSET 11.9445 1.14441e-005 0
        CHANNELS 3 Zrotation Xrotation Yrotation
        JOINT Spine3
        {
          OFFSET 14.7254 4.19617e-005 0
          CHANNELS 3 Zrotation Xrotation Yrotation
          JOINT Spine4
          {
            OFFSET 10.9679 0 0
            CHANNELS 3 Zrotation Xrotation Yrotation
            JOINT RightShoulder
            {
              OFFSET 2.46616 -1.6653 3.69651
              CHANNELS 3 Zrotation Xrotation Yrotation
              JOINT RightArm
              {
                OFFSET 13.0012 0 0
                CHANNELS 3 Zrotation Xrotation Yrotation
                JOINT RightForeArm
                {
                  OFFSET 28.7848 1.62311e-005 0
                  CHANNELS 3 Zrotation Xrotation Yrotation
                  JOINT RightHand
                  {
                    OFFSET 26.5688 1.62095e-005 0
                    CHANNELS 3 Zrotation Xrotation Yrotation
                    End Site
                    {
                      OFFSET 0 0 0
                    }
                  }
                }
              }
            }
            JOINT LeftShoulder
            {
              OFFSET 2.38034 -1.29275 -3.7523
              CHANNELS 3 Zrotation Xrotation Yrotation
              JOINT LeftArm
              {
                OFFSET 16.3182 6.07031e-005 0
                CHANNELS 3 Zrotation Xrotation Yrotation
                JOINT LeftForeArm
                {
                  OFFSET 27.0901 0 0
                  CHANNELS 3 Zrotation Xrotation Yrotation
                  JOINT LeftHand
                  {
                    OFFSET 24.5451 1.51738e-005 0
                    CHANNELS 3 Zrotation Xrotation Yrotation
                    End Site
                    {
                      OFFSET 0 0 0
                    }
                  }
                }
              }
            }
            JOINT Neck
            {
              OFFSET 5.0226 -0.0266342 0
              CHANNELS 3 Zrotation Xrotation Yrotation
              JOINT Head
              {
                OFFSET 6.69364 2.86102e-005 0
                CHANNELS 3 Zrotation Xrotation Yrotation
                End Site
                {
                  OFFSET 0 0 0
                }
              }
            }
          }
        }
      }
    }
  }
}
MOTION
Frames:	10
Frame Time:	0.0416667
33.8737 69.6107 10.2538 -5.96416 -69.5255 -6.48826 -84.7224 68.5116 41.4069 -96.3696 28.6224 -9.09596 92.0225 21.388 -0.399895 8.74594 -11.809 2.91858 90.0566 62.318 142.115 -100.357 -19.4687 7.32372 88.5346 -20.8337 -5.28812 26.312 -1.27778 11.0295 0.654058 10.3308 -90.7392 6.2162 0.994484 -1.48704 -5.45526 0.928074 -1.52937 -27.9892 1.39539 -1.11945 -7.97651 1.39539 -1.11946 87.5169 -21.4472 -116.06 11.7342 -1.46246 -53.3805 14.8396 -58.7042 -2.70413 -26.1451 -5.11184 11.6963 -93.4014 -34.152 68.5836 -7.48693 6.36021 -77.0132 -5.01176 54.6734 -0.0133936 6.94206 2.36874 2.03461 9.33289 0.364103 -2.2059 -9.63021 0.5679 5.17601 
34.354 64.518 9.50933 -7.53692 -70.744 -7.90439 -67.5296 67.9538 24.4806 -107.446 26.0095 -3.54463 94.5498 22.5811 -1.22592 8.85532 -11.8046 3.01479 76.8829 60.9548 154.542 -109.982 -17.8403 2.90865 89.8899 -22.339 -6.18422 26.9693 -1.46733 10.8237 0.655581 10.6836 -90.7311 5.5107 1.00556 -1.46009 -6.16074 0.940343 -1.50292 -28.6949 1.39786 -1.09042 -8.68227 1.39787 -1.09041 87.7337 -20.7876 -115.972 11.0988 -0.720295 -53.9355 14.5146 -58.516 -2.83128 -27.0478 -5.38045 12.2251 -93.9157 -34.7473 67.907 -6.41763 5.19256 -77.0393 -4.67341 55.2144 -0.0131773 9.13962 2.4048 3.27523 9.09531 0.371038 -1.4973 -8.93143 0.496495 4.13138 
34.9501 59.4547 8.96527 -9.95233 -72.7881 -10.629 -56.4788 65.5862 13.6025 -117.065 22.6599 0.891622 97.4236 24.2551 -1.56452 9.51185 -11.6996 3.49065 67.1624 58.9805 163.675 -118.703 -14.4405 -1.04574 92.4447 -24.2746 -6.3216 27.3715 -1.64786 11.0121 0.652826 10.9889 -90.6159 4.89989 1.05132 -1.22454 -6.77128 0.996409 -1.26962 -29.3073 1.37073 -0.851969 -9.29462 1.37072 -0.851976 87.2868 -20.6836 -117.032 11.1755 0.0383272 -53.2964 13.8207 -57.7205 -2.89876 -28.2494 -5.10316 9.76277 -93.9428 -34.6524 67.8221 -6.63912 4.53922 -76.339 -4.28465 55.7923 -0.0129597 6.87554 2.40703 2.29583 8.12645 0.444105 -1.74382 -8.70746 0.616486 4.11942 
35.5976 54.32 8.59111 -13.4995 -75.176 -14.1952 -48.8365 62.8419 6.38203 -125.605 18.1903 4.20035 101.49 25.7869 -3.36058 11.0419 -10.8703 3.60815 62.6726 56.4448 168.182 -125.674 -9.25636 -3.83388 98.6735 -28.0464 -4.7798 27.684 -1.69729 10.7053 0.705695 11.2725 -90.5934 4.33318 1.16908 -1.17199 -7.33782 1.11637 -1.22232 -29.8751 1.46725 -0.766433 -9.86243 1.46725 -0.766445 87.3417 -20.6512 -116.929 10.3472 -0.46338 -53.0917 13.5006 -56.866 -3.96617 -27.4347 -4.78904 9.02201 -94.1673 -36.1646 68.0156 -6.07051 4.66477 -76.2324 -4.52114 55.2144 -0.0123602 8.68134 2.33681 2.42169 7.85116 0.310944 -0.929257 -8.67621 0.359872 3.087 
36.0616 49.2956 8.26963 -18.9069 -77.9129 -19.6585 -41.3598 59.534 -0.601672 -133.297 13.7183 6.63194 102.828 26.4439 -3.13297 8.82624 -11.2552 2.04679 58.7708 53.709 172.52 -131.555 -2.80652 -5.90859 104.151 -30.785 -2.77316 27.7933 -1.46665 9.35189 0.768335 11.5304 -90.5286 3.81752 1.32277 -1.03641 -7.8532 1.27587 -1.09363 -30.3924 1.57308 -0.590906 -10.3798 1.57308 -0.590903 87.2061 -21.3314 -116.816 10.3925 -0.433802 -53.4411 14.9295 -58.9443 -2.58853 -27.7806 -5.2205 10.5914 -94.1066 -36.1032 68.0959 -6.55314 5.23887 -75.7707 -4.71967 56.3322 -0.0122933 9.56653 2.36109 2.8117 7.83082 0.149387 -1.70496 -8.70537 0.341413 3.52164 
36.2644 44.7006 7.83132 -25.8743 -80.8593 -26.5972 -37.1886 56.6254 -5.76589 -139.077 7.59164 7.98465 106.109 27.5883 -4.01744 9.98221 -11.554 3.72027 55.466 50.2435 177.67 -136.498 5.95092 -7.42535 106.559 -31.4552 -2.2778 28.0243 -1.4086 8.62751 0.801231 11.7632 -90.5062 3.35194 1.39938 -0.983172 -8.31867 1.35475 -1.04383 -30.8588 1.63016 -0.517091 -10.8462 1.63015 -0.517087 87.1509 -21.0709 -117.096 10.7718 -0.962549 -53.0448 14.4773 -59.2632 -3.25669 -31.2863 -6.18505 11.9103 -94.0024 -35.953 68.2188 -8.25743 6.31176 -75.4172 -3.94914 57.8858 -0.0123714 13.4611 2.28839 3.3626 7.46364 -0.00282816 -1.92686 -8.49397 0.254814 3.15326 
36.2415 41.0906 7.57868 -36.4074 -84.2229 -37.0075 -35.0865 54.8466 -9.64816 -143.317 3.368 8.57227 105.906 27.2185 -3.49675 11.2974 -11.7094 5.35063 54.5246 47.8072 -179.336 -139.712 14.0057 -8.375 107.483 -31.2213 -2.35563 28.6023 -1.40075 7.46004 0.809589 12.0729 -90.5501 2.73265 1.40119 -1.05655 -8.938 1.35334 -1.1172 -31.4779 1.65394 -0.586525 -11.4653 1.65393 -0.586525 87.6091 -19.8684 -116.813 12.3003 -1.76979 -53.2126 14.1413 -59.5039 -3.35826 -32.4349 -7.06229 14.6117 -93.6954 -35.8862 68.7249 -8.97327 7.70909 -75.6593 -4.38351 56.247 -0.0114048 15.529 2.71016 6.37835 7.11102 -0.261594 -1.51311 -7.50712 -0.0471986 2.73761 
36.1884 39.0989 7.56533 -62.9741 -86.5648 -63.9648 -35.0579 54.5604 -10.2684 -145.483 1.10327 8.66208 105.661 27.0153 -2.9845 11.939 -11.6466 5.94162 54.528 47.7669 -177.929 -141.874 17.7225 -8.68312 106.598 -30.7633 -3.50755 29.2305 -1.51561 6.77841 0.863422 12.4341 -90.5616 2.01061 1.50712 -1.06168 -9.65995 1.45894 -1.12699 -32.2009 1.7565 -0.559567 -12.1882 1.75651 -0.559562 88.3759 -19.2106 -115.468 13.2669 -2.3735 -54.1034 14.6703 -54.6646 -2.43022 -33.4979 -7.24084 15.0639 -93.6885 -35.7401 68.6824 -9.01919 8.77406 -76.0939 -4.18823 55.3727 -0.0107266 13.7548 2.29075 3.50841 7.4714 -0.428317 -0.716511 -5.47667 -0.309908 2.17947 
36.0918 38.854 7.3063 -74.5829 -87.013 -75.7187 -35.4496 54.6777 -10.3079 -145.159 0.637097 8.69919 106.193 27.7784 -2.56816 7.86456 -12.8763 3.82047 54.3848 48.1824 -177.002 -141.915 18.6188 -8.67473 105.704 -30.0745 -3.63156 29.3725 -1.51379 6.4685 0.837455 12.6854 -90.4999 1.50716 1.48085 -0.931351 -10.1633 1.43843 -0.995631 -32.7044 1.69228 -0.443148 -12.6918 1.69228 -0.443158 88.7963 -18.5851 -114.873 13.1808 -2.04829 -55.5918 13.7123 -54.2972 -3.1075 -33.6351 -7.21236 14.8322 -93.5604 -35.9259 68.9738 -9.36056 8.64005 -76.8418 -4.21421 54.9213 -0.0101838 13.5354 2.50256 4.67829 10.3191 -0.444837 -0.839895 -4.72521 -0.265865 2.14272 
36.1382 39.9074 6.59379 -55.6883 -86.1552 -56.6535 -35.0847 54.1824 -10.874 -143.459 1.37104 8.66304 104.937 27.2359 -2.17308 8.79836 -12.7928 4.62115 53.9474 47.9857 -175.963 -140.373 16.7631 -8.58346 103.982 -29.6679 -4.54601 28.7628 -1.35522 6.89791 0.787409 12.7407 -90.3833 1.39554 1.42572 -0.703492 -10.2749 1.39337 -0.765575 -32.816 1.57122 -0.242397 -12.8034 1.57122 -0.242403 88.7041 -18.7577 -114.983 11.534 -0.903309 -56.7551 12.1407 -54.5912 -4.84113 -35.02 -7.1611 13.533 -93.5566 -35.4168 68.7898 -9.40327 7.80402 -76.6405 -4.95209 53.5571 -0.00944258 16.6674 2.75965 6.46442 15.7673 -0.311011 -1.3088 -4.6928 0.0459935 2.07898 
